<?xml version="1.0" encoding="UTF-8" standalone="no"?>
<!-- Created with Inkscape (http://www.inkscape.org/) -->

<svg
   xmlns:dc="http://purl.org/dc/elements/1.1/"
   xmlns:cc="http://creativecommons.org/ns#"
   xmlns:rdf="http://www.w3.org/1999/02/22-rdf-syntax-ns#"
   xmlns:svg="http://www.w3.org/2000/svg"
   xmlns="http://www.w3.org/2000/svg"
   xmlns:sodipodi="http://sodipodi.sourceforge.net/DTD/sodipodi-0.dtd"
   xmlns:inkscape="http://www.inkscape.org/namespaces/inkscape"
   width="12in"
   height="12in"
   viewBox="0 0 304.8 304.79999"
   version="1.1"
   id="svg8"
   inkscape:version="0.92.5 (2060ec1f9f, 2020-04-08)"
   sodipodi:docname="12x12mat-with-9-cards.svg">
  <defs
     id="defs2" />
  <sodipodi:namedview
     id="base"
     pagecolor="#ffffff"
     bordercolor="#666666"
     borderopacity="1.0"
     inkscape:pageopacity="0.0"
     inkscape:pageshadow="2"
     inkscape:zoom="0.35"
     inkscape:cx="511.67166"
     inkscape:cy="469.10524"
     inkscape:document-units="mm"
     inkscape:current-layer="layer1"
     showgrid="true"
     units="in"
     inkscape:window-width="1600"
     inkscape:window-height="836"
     inkscape:window-x="1920"
     inkscape:window-y="27"
     inkscape:window-maximized="1"
     inkscape:snap-global="false"
     showguides="true"
     inkscape:guide-bbox="true"
     inkscape:snap-grids="false"
     inkscape:snap-to-guides="false"
     inkscape:snap-center="false"
     inkscape:snap-object-midpoints="false"
     inkscape:snap-others="false"
     inkscape:snap-smooth-nodes="false"
     inkscape:object-nodes="false"
     inkscape:snap-bbox="true"
     inkscape:snap-bbox-edge-midpoints="false"
     inkscape:object-paths="true"
     inkscape:snap-bbox-midpoints="false"
     inkscape:bbox-nodes="false"
     inkscape:bbox-paths="false"
     inkscape:snap-midpoints="true">
    <inkscape:grid
       type="xygrid"
       id="grid820"
       units="in"
       spacingx="25.4"
       spacingy="25.4"
       dotted="false" />
    <sodipodi:guide
       position="220.05301,116.66471"
       orientation="1,0"
       id="guide1520"
       inkscape:locked="false" />
  </sodipodi:namedview>
  <metadata
     id="metadata5">
    <rdf:RDF>
      <cc:Work
         rdf:about="">
        <dc:format>image/svg+xml</dc:format>
        <dc:type
           rdf:resource="http://purl.org/dc/dcmitype/StillImage" />
        <dc:title />
      </cc:Work>
    </rdf:RDF>
  </metadata>
  <g
     inkscape:label="Layer 1"
     inkscape:groupmode="layer"
     id="layer1"
     transform="translate(0,7.7999963)">
    <path
       style="fill:none;fill-opacity:1;stroke:#000000;stroke-width:0.25;stroke-miterlimit:4;stroke-dasharray:none;stroke-opacity:1"
       d="m 56.902128,-4.5421762 h 57.500002 c 1.662,0 3,1.3379999 3,3 V 81.357825 c 0,1.662 -1.338,3 -3,3 H 56.902128 c -1.662,0 -3,-1.338 -3,-3 V -1.5421762 c 0,-1.6620001 1.338,-3 3,-3 z"
       id="rect4579"
       inkscape:connector-curvature="0" />
    <path
       style="fill:none;fill-opacity:1;stroke:#000000;stroke-width:0.25;stroke-miterlimit:4;stroke-dasharray:none;stroke-opacity:1"
       d="m 56.902128,179.9102 h 57.500002 c 1.662,0 3,1.338 3,3 v 82.90001 c 0,1.662 -1.338,3 -3,3 H 56.902128 c -1.662,0 -3,-1.338 -3,-3 V 182.9102 c 0,-1.662 1.338,-3 3,-3 z"
       id="path4584"
       inkscape:connector-curvature="0" />
    <path
       inkscape:connector-curvature="0"
       id="path4586"
       d="m 128.53037,-4.5421762 h 57.49999 c 1.662,0 3,1.3379999 3,3 V 81.357825 c 0,1.662 -1.338,3 -3,3 h -57.49999 c -1.662,0 -3,-1.338 -3,-3 V -1.5421762 c 0,-1.6620001 1.338,-3 3,-3 z"
       style="fill:none;fill-opacity:1;stroke:#000000;stroke-width:0.25;stroke-miterlimit:4;stroke-dasharray:none;stroke-opacity:1" />
    <path
       inkscape:connector-curvature="0"
       id="path4590"
       d="m 128.53037,179.9102 h 57.49999 c 1.662,0 3,1.338 3,3 v 82.90001 c 0,1.662 -1.338,3 -3,3 h -57.49999 c -1.662,0 -3,-1.338 -3,-3 V 182.9102 c 0,-1.662 1.338,-3 3,-3 z"
       style="fill:none;fill-opacity:1;stroke:#000000;stroke-width:0.25;stroke-miterlimit:4;stroke-dasharray:none;stroke-opacity:1" />
    <path
       style="fill:none;fill-opacity:1;stroke:#000000;stroke-width:0.25;stroke-miterlimit:4;stroke-dasharray:none;stroke-opacity:1"
       d="m 198.02044,-4.5421762 h 57.5 c 1.662,0 3,1.3379999 3,3 V 81.357825 c 0,1.662 -1.338,3 -3,3 h -57.5 c -1.662,0 -3,-1.338 -3,-3 V -1.5421762 c 0,-1.6620001 1.338,-3 3,-3 z"
       id="path4592"
       inkscape:connector-curvature="0" />
    <path
       inkscape:connector-curvature="0"
       id="path820"
       d="m 56.902128,87.802965 h 57.500002 c 1.662,0 3,1.338 3,3 v 82.900005 c 0,1.662 -1.338,3 -3,3 H 56.902128 c -1.662,0 -3,-1.338 -3,-3 V 90.802965 c 0,-1.662 1.338,-3 3,-3 z"
       style="fill:none;fill-opacity:1;stroke:#000000;stroke-width:0.25;stroke-miterlimit:4;stroke-dasharray:none;stroke-opacity:1" />
    <path
       style="fill:none;fill-opacity:1;stroke:#000000;stroke-width:0.25;stroke-miterlimit:4;stroke-dasharray:none;stroke-opacity:1"
       d="m 128.53037,87.802965 h 57.49999 c 1.662,0 3,1.338 3,3 v 82.900005 c 0,1.662 -1.338,3 -3,3 h -57.49999 c -1.662,0 -3,-1.338 -3,-3 V 90.802965 c 0,-1.662 1.338,-3 3,-3 z"
       id="path822"
       inkscape:connector-curvature="0" />
    <path
       inkscape:connector-curvature="0"
       id="path824"
       d="m 198.02044,87.802965 h 57.5 c 1.662,0 3,1.338 3,3 v 82.900005 c 0,1.662 -1.338,3 -3,3 h -57.5 c -1.662,0 -3,-1.338 -3,-3 V 90.802965 c 0,-1.662 1.338,-3 3,-3 z"
       style="fill:none;fill-opacity:1;stroke:#000000;stroke-width:0.25;stroke-miterlimit:4;stroke-dasharray:none;stroke-opacity:1" />
    <path
       style="fill:none;fill-opacity:1;stroke:#000000;stroke-width:0.25;stroke-miterlimit:4;stroke-dasharray:none;stroke-opacity:1"
       d="m 198.02044,179.74368 h 57.5 c 1.662,0 3,1.338 3,3 v 82.90001 c 0,1.662 -1.338,3 -3,3 h -57.5 c -1.662,0 -3,-1.338 -3,-3 v -82.90001 c 0,-1.662 1.338,-3 3,-3 z"
       id="path830"
       inkscape:connector-curvature="0" />
  </g>
</svg>
