<?xml version="1.0" encoding="UTF-8" standalone="no"?>
<!-- Created with Inkscape (http://www.inkscape.org/) -->

<svg
   xmlns:dc="http://purl.org/dc/elements/1.1/"
   xmlns:cc="http://creativecommons.org/ns#"
   xmlns:rdf="http://www.w3.org/1999/02/22-rdf-syntax-ns#"
   xmlns:svg="http://www.w3.org/2000/svg"
   xmlns="http://www.w3.org/2000/svg"
   xmlns:sodipodi="http://sodipodi.sourceforge.net/DTD/sodipodi-0.dtd"
   xmlns:inkscape="http://www.inkscape.org/namespaces/inkscape"
   width="12in"
   height="12in"
   viewBox="0 0 304.8 304.79999"
   version="1.1"
   id="svg8"
   inkscape:version="0.92.5 (2060ec1f9f, 2020-04-08)"
   sodipodi:docname="12x12mat-with-9-cards-divider.svg">
  <defs
     id="defs2" />
  <sodipodi:namedview
     id="base"
     pagecolor="#ffffff"
     bordercolor="#666666"
     borderopacity="1.0"
     inkscape:pageopacity="0.0"
     inkscape:pageshadow="2"
     inkscape:zoom="0.35"
     inkscape:cx="189.62382"
     inkscape:cy="564.35053"
     inkscape:document-units="mm"
     inkscape:current-layer="layer1"
     showgrid="true"
     units="in"
     inkscape:window-width="1600"
     inkscape:window-height="836"
     inkscape:window-x="1920"
     inkscape:window-y="27"
     inkscape:window-maximized="1"
     inkscape:snap-global="false"
     showguides="true"
     inkscape:guide-bbox="true"
     inkscape:snap-grids="false"
     inkscape:snap-to-guides="false"
     inkscape:snap-center="false"
     inkscape:snap-object-midpoints="false"
     inkscape:snap-others="false"
     inkscape:snap-smooth-nodes="false"
     inkscape:object-nodes="false"
     inkscape:snap-bbox="true"
     inkscape:snap-bbox-edge-midpoints="false"
     inkscape:object-paths="true"
     inkscape:snap-bbox-midpoints="false"
     inkscape:bbox-nodes="false"
     inkscape:bbox-paths="false"
     inkscape:snap-midpoints="true">
    <inkscape:grid
       type="xygrid"
       id="grid820"
       units="in"
       spacingx="25.4"
       spacingy="25.4"
       dotted="false" />
    <sodipodi:guide
       position="220.05301,116.66471"
       orientation="1,0"
       id="guide1520"
       inkscape:locked="false" />
  </sodipodi:namedview>
  <metadata
     id="metadata5">
    <rdf:RDF>
      <cc:Work
         rdf:about="">
        <dc:format>image/svg+xml</dc:format>
        <dc:type
           rdf:resource="http://purl.org/dc/dcmitype/StillImage" />
        <dc:title></dc:title>
      </cc:Work>
    </rdf:RDF>
  </metadata>
  <g
     inkscape:label="Layer 1"
     inkscape:groupmode="layer"
     id="layer1"
     transform="translate(0,7.7999963)">
    <path
       sodipodi:nodetypes="ccccsssssssccc"
       inkscape:connector-curvature="0"
       id="path1528"
       d="m 227.54683,176.14879 0.002,-0.14174 c 0,-1.65685 1.34315,-3 3,-3 h 26.48356 c 1.662,0 3,1.338 3,3 v 89.04721 c 0,1.662 -1.338,3 -3,3 h -57.5 c -1.662,0 -3,-1.338 -3,-3 v -82.90001 c 0,-1.662 1.338,-3.0002 3,-3.0002 h 25.01451 c 1.65685,-0.003 2.99993,-1.34868 2.99993,-3.00553 z"
       style="fill:none;fill-opacity:1;stroke:#000000;stroke-width:0.25;stroke-miterlimit:4;stroke-dasharray:none;stroke-opacity:1" />
    <path
       style="fill:none;fill-opacity:1;stroke:#000000;stroke-width:0.25;stroke-miterlimit:4;stroke-dasharray:none;stroke-opacity:1"
       d="m 156.87748,176.14879 0.002,-0.14174 c 0,-1.65685 1.34315,-3 3,-3 h 26.48356 c 1.662,0 3,1.338 3,3 v 89.04721 c 0,1.662 -1.338,3 -3,3 h -57.5 c -1.662,0 -3,-1.338 -3,-3 v -82.90001 c 0,-1.662 1.338,-3.0002 3,-3.0002 h 25.01451 c 1.65685,-0.003 2.99993,-1.34868 2.99993,-3.00553 z"
       id="path1561"
       inkscape:connector-curvature="0"
       sodipodi:nodetypes="ccccsssssssccc" />
    <path
       sodipodi:nodetypes="ccccsssssssccc"
       inkscape:connector-curvature="0"
       id="path1563"
       d="m 86.31833,176.14879 0.002,-0.14174 c 0,-1.65685 1.34315,-3 3,-3 h 26.48356 c 1.662,0 3,1.338 3,3 v 89.04721 c 0,1.662 -1.338,3 -3,3 h -57.5 c -1.662,0 -3,-1.338 -3,-3 v -82.90001 c 0,-1.662 1.338,-3.0002 3,-3.0002 H 83.3184 c 1.65685,-0.003 2.99993,-1.34868 2.99993,-3.00553 z"
       style="fill:none;fill-opacity:1;stroke:#000000;stroke-width:0.25;stroke-miterlimit:4;stroke-dasharray:none;stroke-opacity:1" />
    <path
       style="fill:none;fill-opacity:1;stroke:#000000;stroke-width:0.25;stroke-miterlimit:4;stroke-dasharray:none;stroke-opacity:1"
       d="m 87.789455,163.44182 -0.002,0.14174 c 0,1.65685 -1.34315,3 -3,3 H 58.30389 c -1.662,0 -3,-1.338 -3,-3 V 74.536341 c 0,-1.662 1.338,-3 3,-3 h 57.5 c 1.662,0 3,1.338 3,3 v 82.900019 c 0,1.662 -1.338,3.0002 -3,3.0002 H 90.789385 c -1.65685,0.003 -2.99993,1.34868 -2.99993,3.00553 z"
       id="path1565"
       inkscape:connector-curvature="0"
       sodipodi:nodetypes="ccccsssssssccc" />
    <path
       sodipodi:nodetypes="ccccsssssssccc"
       inkscape:connector-curvature="0"
       id="path1569"
       d="m 156.74499,163.44182 -0.002,0.14174 c 0,1.65685 -1.34315,3 -3,3 h -26.48357 c -1.662,0 -3,-1.338 -3,-3 V 74.536341 c 0,-1.662 1.338,-3 3,-3 h 57.50001 c 1.662,0 3,1.338 3,3 v 82.900019 c 0,1.662 -1.338,3.0002 -3,3.0002 h -25.01451 c -1.65685,0.003 -2.99993,1.34868 -2.99993,3.00553 z"
       style="fill:none;fill-opacity:1;stroke:#000000;stroke-width:0.25;stroke-miterlimit:4;stroke-dasharray:none;stroke-opacity:1" />
    <path
       style="fill:none;fill-opacity:1;stroke:#000000;stroke-width:0.25;stroke-miterlimit:4;stroke-dasharray:none;stroke-opacity:1"
       d="m 228.90776,163.44182 -0.002,0.14174 c 0,1.65685 -1.34315,3 -3,3 h -26.48357 c -1.662,0 -3,-1.338 -3,-3 V 74.536341 c 0,-1.662 1.338,-3 3,-3 h 57.50001 c 1.662,0 3,1.338 3,3 v 82.900019 c 0,1.662 -1.338,3.0002 -3,3.0002 h -25.01451 c -1.65685,0.003 -2.99993,1.34868 -2.99993,3.00553 z"
       id="path1571"
       inkscape:connector-curvature="0"
       sodipodi:nodetypes="ccccsssssssccc" />
    <path
       sodipodi:nodetypes="ccccsssssssccc"
       inkscape:connector-curvature="0"
       id="path1573"
       d="m 148.541,27.895568 0.14174,0.002 c 1.65685,0 3,1.343151 3,3 v 26.48357 c 0,1.662 -1.338,3 -3,3 H 59.635532 c -1.662,0 -3,-1.338 -3,-3 V -0.11887165 c 0,-1.66200005 1.338,-3.00000005 3,-3.00000005 h 82.900008 c 1.662,0 3.0002,1.338 3.0002,3.00000005 V 24.895638 c 0.003,1.65685 1.34868,2.99993 3.00553,2.99993 z"
       style="fill:none;fill-opacity:1;stroke:#000000;stroke-width:0.25;stroke-miterlimit:4;stroke-dasharray:none;stroke-opacity:1" />
    <path
       style="fill:none;fill-opacity:1;stroke:#000000;stroke-width:0.25;stroke-miterlimit:4;stroke-dasharray:none;stroke-opacity:1"
       d="m 167.75415,29.901238 -0.14174,-0.002 c -1.65685,0 -3,-1.343151 -3,-3 V 0.41566742 c 0,-1.66200002 1.338,-3.00000002 3,-3.00000002 h 89.04722 c 1.662,0 3,1.338 3,3.00000002 V 57.915677 c 0,1.662 -1.338,3 -3,3 h -82.90002 c -1.662,0 -3.0002,-1.338 -3.0002,-3 V 32.901168 c -0.003,-1.65685 -1.34868,-2.99993 -3.00553,-2.99993 z"
       id="path1575"
       inkscape:connector-curvature="0"
       sodipodi:nodetypes="ccccsssssssccc" />
  </g>
</svg>
