<?xml version="1.0" encoding="UTF-8" standalone="no"?>
<!-- Created with Inkscape (http://www.inkscape.org/) -->

<svg
   xmlns:dc="http://purl.org/dc/elements/1.1/"
   xmlns:cc="http://creativecommons.org/ns#"
   xmlns:rdf="http://www.w3.org/1999/02/22-rdf-syntax-ns#"
   xmlns:svg="http://www.w3.org/2000/svg"
   xmlns="http://www.w3.org/2000/svg"
   xmlns:sodipodi="http://sodipodi.sourceforge.net/DTD/sodipodi-0.dtd"
   xmlns:inkscape="http://www.inkscape.org/namespaces/inkscape"
   width="12in"
   height="12in"
   viewBox="0 0 304.8 304.79999"
   version="1.1"
   id="svg8"
   inkscape:version="0.92.5 (2060ec1f9f, 2020-04-08)"
   sodipodi:docname="12x12mat-with-card-stencil.svg">
  <defs
     id="defs2" />
  <sodipodi:namedview
     id="base"
     pagecolor="#ffffff"
     bordercolor="#666666"
     borderopacity="1.0"
     inkscape:pageopacity="0.0"
     inkscape:pageshadow="2"
     inkscape:zoom="0.7"
     inkscape:cx="476.64182"
     inkscape:cy="701.47965"
     inkscape:document-units="mm"
     inkscape:current-layer="layer1"
     showgrid="true"
     units="in"
     inkscape:window-width="1600"
     inkscape:window-height="836"
     inkscape:window-x="1920"
     inkscape:window-y="27"
     inkscape:window-maximized="1"
     inkscape:snap-global="true"
     showguides="true"
     inkscape:guide-bbox="true"
     inkscape:snap-nodes="false"
     inkscape:snap-grids="false"
     inkscape:snap-others="false"
     inkscape:snap-to-guides="false">
    <inkscape:grid
       type="xygrid"
       id="grid820"
       units="in"
       spacingx="25.4"
       spacingy="25.4"
       dotted="false" />
  </sodipodi:namedview>
  <metadata
     id="metadata5">
    <rdf:RDF>
      <cc:Work
         rdf:about="">
        <dc:format>image/svg+xml</dc:format>
        <dc:type
           rdf:resource="http://purl.org/dc/dcmitype/StillImage" />
        <dc:title></dc:title>
      </cc:Work>
    </rdf:RDF>
  </metadata>
  <g
     inkscape:label="Layer 1"
     inkscape:groupmode="layer"
     id="layer1"
     transform="translate(0,7.7999963)">
    <path
       style="fill:none;fill-opacity:1;stroke:#000000;stroke-width:0.26497453;stroke-miterlimit:4;stroke-dasharray:none;stroke-opacity:1"
       d="m 179.47775,106.64702 31.0069,1e-5 c 1.89863,0 3.42718,-1.4742 3.42718,-3.30522 V 58.761066 l -2.23449,-2e-6 v 0 42.352456 c 0,1.74166 -1.43467,3.14348 -3.21634,3.14348 l -28.98325,-1e-5 z"
       id="path947"
       inkscape:connector-curvature="0"
       sodipodi:nodetypes="csscccsscc" />
    <path
       style="fill:none;fill-opacity:1;stroke:#000000;stroke-width:0.26497453;stroke-miterlimit:4;stroke-dasharray:none;stroke-opacity:1"
       d="m 177.31664,104.25699 -30.49529,1e-5 c -1.78166,0 -3.21634,-1.40182 -3.21634,-3.14348 V 58.761069 l -2.23449,-5e-6 v 44.580746 c 0,1.83102 1.52855,3.30522 3.42718,3.30522 h 32.51894 z"
       id="path943"
       inkscape:connector-curvature="0"
       sodipodi:nodetypes="cssccsscc" />
    <path
       id="path933"
       style="fill:none;fill-opacity:1;stroke:#000000;stroke-width:0.26497453;stroke-miterlimit:4;stroke-dasharray:none;stroke-opacity:1"
       d="m 143.60501,56.592205 0,-42.352446 c 0,-1.741667 1.43468,-3.143993 3.21634,-3.143993 v 0 l 30.49529,-6e-6 V 8.7062448 l -32.51894,2.6e-6 c -1.89863,0 -3.42718,1.4736846 -3.42718,3.3047066 v 44.581254 z"
       inkscape:connector-curvature="0"
       sodipodi:nodetypes="csccccsscc" />
    <path
       style="fill:none;fill-opacity:1;stroke:#000000;stroke-width:0.26497453;stroke-miterlimit:4;stroke-dasharray:none;stroke-opacity:1"
       d="M 213.91183,56.592211 V 12.010954 c 0,-1.831022 -1.52855,-3.3047066 -3.42718,-3.3047066 h -31.0069 l 1e-5,2.3895186 H 208.461 c 1.78167,0 3.21634,1.402326 3.21634,3.143993 v 42.352449 z"
       id="path897"
       inkscape:connector-curvature="0"
       sodipodi:nodetypes="cssccsscc" />
    <path
       style="fill:none;fill-opacity:1;stroke:#000000;stroke-width:0.33520389;stroke-miterlimit:4;stroke-dasharray:none;stroke-opacity:1"
       d="m 137.31299,0.7074563 h 80.65637 c 2.33132,0 4.20816,1.714839 4.20816,3.844931 V 110.80066 c 0,2.1301 -1.87684,3.84494 -4.20816,3.84494 h -80.65637 c -2.33132,0 -4.20816,-1.71484 -4.20816,-3.84494 V 4.5523873 c 0,-2.130092 1.87684,-3.844931 4.20816,-3.844931 z"
       id="path949"
       inkscape:connector-curvature="0" />
    <rect
       style="fill:none;fill-opacity:1;stroke:#000000;stroke-width:0.15486655;stroke-miterlimit:4;stroke-dasharray:none;stroke-opacity:1"
       id="rect965"
       width="30.204508"
       height="30.204508"
       x="151.71307"
       y="-100.25398"
       rx="1.8584013"
       ry="1.8584013"
       transform="rotate(45)" />
    <rect
       style="fill:none;fill-opacity:1;stroke:#000000;stroke-width:0.19445822;stroke-miterlimit:4;stroke-dasharray:none;stroke-opacity:1"
       id="rect967"
       width="6.8604031"
       height="2.2868011"
       x="-209.88148"
       y="-96.386856"
       transform="scale(-1)" />
    <rect
       transform="scale(-1)"
       y="-96.386856"
       x="-152.24011"
       height="2.2868011"
       width="6.8604031"
       id="rect969"
       style="fill:none;fill-opacity:1;stroke:#000000;stroke-width:0.19445822;stroke-miterlimit:4;stroke-dasharray:none;stroke-opacity:1" />
    <rect
       y="19.128376"
       x="-209.88148"
       height="2.2868011"
       width="6.8604031"
       id="rect977"
       style="fill:none;fill-opacity:1;stroke:#000000;stroke-width:0.19445822;stroke-miterlimit:4;stroke-dasharray:none;stroke-opacity:1"
       transform="scale(-1,1)" />
    <rect
       style="fill:none;fill-opacity:1;stroke:#000000;stroke-width:0.19445822;stroke-miterlimit:4;stroke-dasharray:none;stroke-opacity:1"
       id="rect981"
       width="6.8604031"
       height="2.2868011"
       x="145.42218"
       y="19.128376" />
    <path
       sodipodi:nodetypes="csscccsscc"
       inkscape:connector-curvature="0"
       id="path983"
       d="m 179.47775,231.00119 31.0069,1e-5 c 1.89863,0 3.42718,-1.4742 3.42718,-3.30522 v -44.58075 l -2.23449,0 v 0 42.35246 c 0,1.74166 -1.43467,3.14348 -3.21634,3.14348 l -28.98325,-10e-6 z"
       style="fill:none;fill-opacity:1;stroke:#000000;stroke-width:0.26497453;stroke-miterlimit:4;stroke-dasharray:none;stroke-opacity:1" />
    <path
       sodipodi:nodetypes="cssccsscc"
       inkscape:connector-curvature="0"
       id="path985"
       d="m 177.31664,228.61116 -30.49529,10e-6 c -1.78166,0 -3.21634,-1.40182 -3.21634,-3.14348 v -42.35245 l -2.23449,-1e-5 v 44.58075 c 0,1.83102 1.52855,3.30522 3.42718,3.30522 h 32.51894 z"
       style="fill:none;fill-opacity:1;stroke:#000000;stroke-width:0.26497453;stroke-miterlimit:4;stroke-dasharray:none;stroke-opacity:1" />
    <path
       sodipodi:nodetypes="csccccsscc"
       inkscape:connector-curvature="0"
       d="m 143.60501,180.94637 v -42.35244 c 0,-1.74167 1.43468,-3.144 3.21634,-3.144 v 0 l 30.49529,0 v -2.38952 l -32.51894,0 c -1.89863,0 -3.42718,1.47369 -3.42718,3.30471 v 44.58125 z"
       style="fill:none;fill-opacity:1;stroke:#000000;stroke-width:0.26497453;stroke-miterlimit:4;stroke-dasharray:none;stroke-opacity:1"
       id="path987" />
    <path
       sodipodi:nodetypes="cssccsscc"
       inkscape:connector-curvature="0"
       id="path989"
       d="m 213.91183,180.94638 v -44.58126 c 0,-1.83102 -1.52855,-3.30471 -3.42718,-3.30471 h -31.0069 l 1e-5,2.38952 H 208.461 c 1.78167,0 3.21634,1.40233 3.21634,3.144 v 42.35244 z"
       style="fill:none;fill-opacity:1;stroke:#000000;stroke-width:0.26497453;stroke-miterlimit:4;stroke-dasharray:none;stroke-opacity:1" />
    <path
       inkscape:connector-curvature="0"
       id="path991"
       d="m 137.31299,125.06162 h 80.65637 c 2.33132,0 4.20816,1.71484 4.20816,3.84493 v 106.24828 c 0,2.1301 -1.87684,3.84494 -4.20816,3.84494 h -80.65637 c -2.33132,0 -4.20816,-1.71484 -4.20816,-3.84494 V 128.90655 c 0,-2.13009 1.87684,-3.84493 4.20816,-3.84493 z"
       style="fill:none;fill-opacity:1;stroke:#000000;stroke-width:0.33520389;stroke-miterlimit:4;stroke-dasharray:none;stroke-opacity:1" />
    <rect
       transform="rotate(45)"
       ry="1.8584013"
       rx="1.8584013"
       y="-12.322308"
       x="239.64474"
       height="30.204508"
       width="30.204508"
       id="rect993"
       style="fill:none;fill-opacity:1;stroke:#000000;stroke-width:0.15486655;stroke-miterlimit:4;stroke-dasharray:none;stroke-opacity:1" />
    <rect
       transform="scale(-1)"
       y="-220.74103"
       x="-209.88148"
       height="2.2868011"
       width="6.8604031"
       id="rect995"
       style="fill:none;fill-opacity:1;stroke:#000000;stroke-width:0.19445822;stroke-miterlimit:4;stroke-dasharray:none;stroke-opacity:1" />
    <rect
       style="fill:none;fill-opacity:1;stroke:#000000;stroke-width:0.19445822;stroke-miterlimit:4;stroke-dasharray:none;stroke-opacity:1"
       id="rect997"
       width="6.8604031"
       height="2.2868011"
       x="-152.24011"
       y="-220.74103"
       transform="scale(-1)" />
    <rect
       transform="scale(-1,1)"
       style="fill:none;fill-opacity:1;stroke:#000000;stroke-width:0.19445822;stroke-miterlimit:4;stroke-dasharray:none;stroke-opacity:1"
       id="rect999"
       width="6.8604031"
       height="2.2868011"
       x="-209.88148"
       y="143.48254" />
    <rect
       y="143.48254"
       x="145.42218"
       height="2.2868011"
       width="6.8604031"
       id="rect1001"
       style="fill:none;fill-opacity:1;stroke:#000000;stroke-width:0.19445822;stroke-miterlimit:4;stroke-dasharray:none;stroke-opacity:1" />
  </g>
</svg>
